<?xml version="1.0" encoding="UTF-8" standalone="no"?>
<!-- Created with Inkscape (http://www.inkscape.org/) -->

<svg
   xmlns:dc="http://purl.org/dc/elements/1.1/"
   xmlns:cc="http://creativecommons.org/ns#"
   xmlns:rdf="http://www.w3.org/1999/02/22-rdf-syntax-ns#"
   xmlns:svg="http://www.w3.org/2000/svg"
   xmlns="http://www.w3.org/2000/svg"
   xmlns:sodipodi="http://sodipodi.sourceforge.net/DTD/sodipodi-0.dtd"
   xmlns:inkscape="http://www.inkscape.org/namespaces/inkscape"
   width="48px"
   height="48px"
   id="svg2912"
   version="1.1"
   inkscape:version="0.47 r22583"
   sodipodi:docname="New document 2">
  <defs
     id="defs2914">
    <inkscape:perspective
       sodipodi:type="inkscape:persp3d"
       inkscape:vp_x="0 : 24 : 1"
       inkscape:vp_y="0 : 1000 : 0"
       inkscape:vp_z="48 : 24 : 1"
       inkscape:persp3d-origin="24 : 16 : 1"
       id="perspective2920" />
    <inkscape:perspective
       id="perspective2930"
       inkscape:persp3d-origin="0.5 : 0.33333333 : 1"
       inkscape:vp_z="1 : 0.5 : 1"
       inkscape:vp_y="0 : 1000 : 0"
       inkscape:vp_x="0 : 0.5 : 1"
       sodipodi:type="inkscape:persp3d" />
    <radialGradient
       id="SVGID_3_"
       cx="434.14749"
       cy="127.707"
       r="136.9415"
       gradientTransform="matrix(0,0.6255,-0.6121,0,516.2558,0.9963)"
       gradientUnits="userSpaceOnUse">
      <stop
         offset="0"
         style="stop-color:#6FCC14;stop-opacity:0.61"
         id="stop45" />
      <stop
         offset="0.3077"
         style="stop-color:#68C111;stop-opacity:0.4223"
         id="stop47" />
      <stop
         offset="0.8482"
         style="stop-color:#54A309;stop-opacity:0.0926"
         id="stop49" />
      <stop
         offset="1"
         style="stop-color:#4E9A06;stop-opacity:0"
         id="stop51" />
    </radialGradient>
    <linearGradient
       id="SVGID_2_"
       gradientUnits="userSpaceOnUse"
       x1="451.3125"
       y1="376.7666"
       x2="461.22549"
       y2="254.2067">
      <stop
         offset="0"
         style="stop-color:#70BE25"
         id="stop37" />
      <stop
         offset="1"
         style="stop-color:#4E9A06"
         id="stop39" />
    </linearGradient>
    <linearGradient
       id="SVGID_1_"
       gradientUnits="userSpaceOnUse"
       x1="457.5137"
       y1="316.95801"
       x2="444.8053"
       y2="129.2654">
      <stop
         offset="0"
         style="stop-color:#89BD58"
         id="stop27" />
      <stop
         offset="1"
         style="stop-color:#519C0A"
         id="stop29" />
    </linearGradient>
  </defs>
  <sodipodi:namedview
     id="base"
     pagecolor="#ffffff"
     bordercolor="#666666"
     borderopacity="1.0"
     inkscape:pageopacity="0.0"
     inkscape:pageshadow="2"
     inkscape:zoom="7"
     inkscape:cx="19.807226"
     inkscape:cy="24"
     inkscape:current-layer="layer1"
     showgrid="true"
     inkscape:grid-bbox="true"
     inkscape:document-units="px"
     inkscape:window-width="891"
     inkscape:window-height="713"
     inkscape:window-x="352"
     inkscape:window-y="35"
     inkscape:window-maximized="0" />
  <metadata
     id="metadata2917">
    <rdf:RDF>
      <cc:Work
         rdf:about="">
        <dc:format>image/svg+xml</dc:format>
        <dc:type
           rdf:resource="http://purl.org/dc/dcmitype/StillImage" />
        <dc:title></dc:title>
      </cc:Work>
    </rdf:RDF>
  </metadata>
  <g
     id="layer1"
     inkscape:label="Layer 1"
     inkscape:groupmode="layer">
    <g
       transform="matrix(0.09,0,0,0.09,-17.483386,-2.0751406)"
       id="Layer_2">
      <g
         id="g6">
        <path
           style="fill:#3a7304"
           d="m 308.385,501.77 c -0.007,5.5 3.704,7.462 8.246,4.36 L 629.104,292.753 c 4.542,-3.102 4.55,-8.188 0.018,-11.305 L 317.175,66.981 c -4.532,-3.116 -8.246,-1.166 -8.253,4.334 l -0.537,430.455 z"
           id="path8" />
      </g>
    </g>
    <g
       transform="matrix(0.09,0,0,0.09,-17.483386,-2.0751406)"
       id="Layer_4">
      <g
         id="g11">
        <path
           style="fill:#a3cb7e"
           d="m 318.338,484.021 c -0.007,5.5 3.688,7.439 8.211,4.31 l 282.634,-195.58 c 4.523,-3.13 4.531,-8.263 0.019,-11.407 L 327.043,84.779 c -4.513,-3.144 -8.21,-1.216 -8.217,4.284 l -0.488,394.958 z"
           id="path13" />
      </g>
    </g>
    <g
       transform="matrix(0.09,0,0,0.09,-17.483386,-2.0751406)"
       id="Layer_5">
      <g
         id="g16">
        <path
           style="fill:#a0e0a0"
           d="m 329.292,463.273 c -0.007,5.5 3.688,7.439 8.211,4.31 L 590.23,292.699 c 4.522,-3.13 4.53,-8.263 0.018,-11.407 L 337.946,105.527 c -4.513,-3.144 -8.21,-1.216 -8.217,4.284 l -0.437,353.462 z"
           id="path18" />
      </g>
      <g
         id="g20">
        <path
           style="fill:#a0e0a0"
           d="m 329.292,463.273 c -0.007,5.5 3.688,7.439 8.211,4.31 L 590.23,292.699 c 4.522,-3.13 4.53,-8.263 0.018,-11.407 L 337.946,105.527 c -4.513,-3.144 -8.21,-1.216 -8.217,4.284 l -0.437,353.462 z"
           id="path22" />
      </g>
      <g
         id="g24">
        <linearGradient
           id="linearGradient2957"
           gradientUnits="userSpaceOnUse"
           x1="457.5137"
           y1="316.95801"
           x2="444.8053"
           y2="129.2654">
          <stop
             offset="0"
             style="stop-color:#89BD58"
             id="stop2959" />
          <stop
             offset="1"
             style="stop-color:#519C0A"
             id="stop2961" />
        </linearGradient>
        <path
           style="fill:url(#SVGID_1_)"
           d="m 329.292,463.273 c -0.007,5.5 3.688,7.439 8.211,4.31 L 590.23,292.699 c 4.522,-3.13 4.53,-8.263 0.018,-11.407 L 337.946,105.527 c -4.513,-3.144 -8.21,-1.216 -8.217,4.284 l -0.437,353.462 z"
           id="path31" />
      </g>
    </g>
    <g
       transform="matrix(0.09,0,0,0.09,-17.483386,-2.0751406)"
       id="Layer_7">
      <g
         id="g34">
        <linearGradient
           id="linearGradient2966"
           gradientUnits="userSpaceOnUse"
           x1="451.3125"
           y1="376.7666"
           x2="461.22549"
           y2="254.2067">
          <stop
             offset="0"
             style="stop-color:#70BE25"
             id="stop2968" />
          <stop
             offset="1"
             style="stop-color:#4E9A06"
             id="stop2970" />
        </linearGradient>
        <path
           style="fill:url(#SVGID_2_)"
           d="m 329.28,463.273 c 0,5.5 3.691,7.426 8.202,4.279 L 585.251,294.729 c 4.512,-3.146 4.103,-3.865 -0.908,-1.597 0,0 -107.343,48.588 -152.343,9.728 -45,-38.86 -92.726,-37.207 -92.726,-37.207 -5.497,0.19 -9.994,4.846 -9.994,10.346 v 187.274 z"
           id="path41" />
      </g>
    </g>
    <g
       transform="matrix(0.09,0,0,0.09,-17.483386,-2.0751406)"
       id="radial_grad">
      <radialGradient
         id="radialGradient2974"
         cx="434.14749"
         cy="127.707"
         r="136.9415"
         gradientTransform="matrix(0,0.6255,-0.6121,0,516.2558,0.9963)"
         gradientUnits="userSpaceOnUse">
        <stop
           offset="0"
           style="stop-color:#6FCC14;stop-opacity:0.61"
           id="stop2976" />
        <stop
           offset="0.3077"
           style="stop-color:#68C111;stop-opacity:0.4223"
           id="stop2978" />
        <stop
           offset="0.8482"
           style="stop-color:#54A309;stop-opacity:0.0926"
           id="stop2980" />
        <stop
           offset="1"
           style="stop-color:#4E9A06;stop-opacity:0"
           id="stop2982" />
      </radialGradient>
      <ellipse
         d="m 541.81901,272.55499 c 0,58.54219 -46.4424,106 -103.732,106 -57.28961,0 -103.73201,-47.45781 -103.73201,-106 0,-58.54218 46.4424,-106 103.73201,-106 57.2896,0 103.732,47.45782 103.732,106 z"
         style="fill:url(#SVGID_3_)"
         sodipodi:ry="106"
         sodipodi:rx="103.732"
         sodipodi:cy="272.55499"
         sodipodi:cx="438.08701"
         cx="438.08701"
         cy="272.55499"
         rx="103.732"
         ry="106"
         id="ellipse53" />
    </g>
  </g>
</svg>
